<svg width="20" height="21" viewBox="0 0 20 21" fill="none" xmlns="http://www.w3.org/2000/svg">
<path d="M3.99955 13C4.8742 12.9974 5.71577 12.6653 6.35655 12.07L12.6165 15.647C12.4068 16.4666 12.4993 17.3343 12.877 18.0913C13.2547 18.8483 13.8925 19.4439 14.6735 19.7692C15.4545 20.0944 16.3265 20.1274 17.1299 19.8623C17.9333 19.5971 18.6143 19.0515 19.0483 18.3252C19.4823 17.599 19.6401 16.7408 19.493 15.9076C19.3459 15.0745 18.9037 14.3222 18.2473 13.7885C17.5909 13.2548 16.7642 12.9753 15.9186 13.0013C15.0729 13.0273 14.265 13.357 13.6425 13.93L7.38255 10.353C7.44855 10.103 7.48455 9.84396 7.49055 9.58496L13.6405 6.06996C14.2327 6.60874 14.9922 6.92747 15.7915 6.97268C16.5908 7.01789 17.3814 6.78684 18.0305 6.31828C18.6797 5.84972 19.1479 5.17217 19.3568 4.39929C19.5656 3.6264 19.5022 2.80522 19.1774 2.0735C18.8525 1.34178 18.2859 0.744037 17.5726 0.38056C16.8592 0.0170831 16.0426 -0.0900175 15.2597 0.077226C14.4768 0.244469 13.7752 0.675882 13.2726 1.29909C12.77 1.92229 12.4971 2.69937 12.4995 3.49996C12.5035 3.78796 12.5425 4.07497 12.6165 4.35296L6.93255 7.59997C6.60293 7.09003 6.14631 6.67461 5.60757 6.39454C5.06882 6.11446 4.46648 5.97936 3.85972 6.00251C3.25297 6.02566 2.66267 6.20627 2.14683 6.52658C1.631 6.84689 1.20736 7.29589 0.917553 7.82946C0.627744 8.36303 0.481732 8.96282 0.493863 9.56989C0.505993 10.177 0.675849 10.7704 0.986742 11.292C1.29763 11.8136 1.73887 12.2453 2.26709 12.5447C2.79531 12.8442 3.39235 13.0011 3.99955 13Z" fill="#D83A52"/>
</svg>
